<svg width="130" height="130" viewBox="0 0 130 130" fill="none" xmlns="http://www.w3.org/2000/svg">
<rect width="130" height="130" rx="65" fill="white" fill-opacity="0.26"/>
<path d="M86.7917 61.4584H68.5417V43.2084C68.5417 42.4017 68.2212 41.628 67.6508 41.0576C67.0804 40.4871 66.3067 40.1667 65.5 40.1667C64.6933 40.1667 63.9196 40.4871 63.3492 41.0576C62.7788 41.628 62.4583 42.4017 62.4583 43.2084V61.4584H44.2083C43.4016 61.4584 42.628 61.7788 42.0576 62.3492C41.4871 62.9197 41.1667 63.6933 41.1667 64.5C41.1667 65.3067 41.4871 66.0804 42.0576 66.6508C42.628 67.2212 43.4016 67.5417 44.2083 67.5417H62.4583V85.7917C62.4583 86.5984 62.7788 87.372 63.3492 87.9425C63.9196 88.5129 64.6933 88.8334 65.5 88.8334C66.3067 88.8334 67.0804 88.5129 67.6508 87.9425C68.2212 87.372 68.5417 86.5984 68.5417 85.7917V67.5417H86.7917C87.5984 67.5417 88.372 67.2212 88.9425 66.6508C89.5129 66.0804 89.8333 65.3067 89.8333 64.5C89.8333 63.6933 89.5129 62.9197 88.9425 62.3492C88.372 61.7788 87.5984 61.4584 86.7917 61.4584Z" fill="white" fill-opacity="0.8"/>
</svg>
